<svg version="1.0" xmlns="http://www.w3.org/2000/svg" width="346.667" height="346.667" viewBox="0 0 260 260"><path d="M183.5 57.4c-1.1.7-6 3.5-11 6.1-4.9 2.6-9.4 5.1-10 5.5-.5.4-3.7 2.2-7 4-3.3 1.8-7.3 4.1-9 5-1.6.9-5.9 3.3-9.5 5.3l-6.5 3.5-64 .1H1.3C.3 87 0 96.8 0 132.5V178l7.2 3.4c4 1.9 15.2 7 24.8 11.4 9.6 4.4 20.9 9.6 25 11.5 4.1 1.9 9.6 4.4 12.2 5.6l4.7 2.1 14.1-8.7c7.8-4.9 17.8-11.1 22.3-13.9 4.5-2.8 11.8-7.3 16.2-10.1l8-5 62.8.4 62.7.3V85.2l-35.2-14c-19.4-7.6-36.2-14.2-37.3-14.6-1.1-.3-2.9 0-4 .8z"/></svg>