<svg width="188" height="128" fill="none" xmlns="http://www.w3.org/2000/svg"><path fill-rule="evenodd" clip-rule="evenodd" d="M21.918 18.472a8.589 8.589 0 004.616-8.016C26.543 4.077 22.049.031 15.034.022L.071 0 .018 37.842l15.595.022c7.012.01 11.412-4.181 11.421-10.825a9.087 9.087 0 00-2.291-6.542 10.152 10.152 0 00-2.825-2.025zM7.337 6.6l7.117.01c2.981 0 4.81 1.655 4.806 4.366-.004 2.711-1.837 4.356-4.819 4.352l-7.116-.011.012-8.717zm7.552 24.675l-7.587-.011.014-9.3 7.587.011c2.982 0 4.863 1.76 4.859 4.633-.004 2.873-1.891 4.676-4.873 4.667zm14.724 6.609l24.538.036.009-6.589-17.266-.025.014-9.2 14.7.021.009-6.591-14.7-.022.012-8.875 17.266.025.009-6.589L29.666.039l-.053 37.845zm34.456-15.682c-.219 7.229-2.785 9.14-6.134 9.135h-1.2l-.009 6.588h3.191c7.22.011 11.2-4.765 11.48-15.4l.441-15.837 8.475.014-.045 31.252 7.273.01.053-37.841L64.679.089l-.61 22.113zm34.742 2.177L98.845.143l-7.272-.01-.06 37.842 6.487.01 14.528-24.269-.035 24.29 7.273.011.054-37.843-6.488-.008-14.521 24.213zm54.3-24.157l-8.842-.013-13.155 16.456.023-16.474-7.273-.011-.054 37.842 7.273.01.017-11.375 4.821-5.837 9.552 17.234 8.474.012-13.2-22.822L153.111.222zm15.221.023l-13.6 37.821 7.584.011 2.262-6.694 13.236.02 2.187 6.7 7.588.011-13.56-37.86-5.697-.009zm-1.719 24.924l4.728-13.757 4.535 13.771-9.263-.014zM0 118.629l5.519.008.105-74.641-5.52-.007L0 118.629zm68.1-74.545L30 44.026l-.015 9.438c-.044 31.236-2.206 42.855-9.378 59.829l-7.146-.01-.02 14.606 5.513.006.015-9.569 52.188.077-.015 9.57 5.517.01.021-14.605-8.682-.014.102-69.28zm-5.613 69.272l-35.851-.053c6.353-16.449 8.813-23.462 8.857-53.751l.014-10.485 27.071.04-.091 64.249zm22.273 5.387l44.121.064.006-5.038-38.605-.056.041-30.084 32.887.05.009-5.031-32.887-.05.04-29.456 38.6.058.006-5.031-44.119-.066-.099 74.64zm75.617-74.534c-13.281-.02-21.974 8.455-21.991 21.458-.015 11.109 6.4 18.983 16.616 20.991l-17.4 32.156 6.432.011 17-31.64 20.428.032-.049 31.667 5.514.007.1-74.639-26.65-.043zm21.082 37.975l-20.534-.032c-10.823-.013-17.045-6-17.031-16.478.014-10.478 6.254-16.451 17.078-16.436l20.534.032-.047 32.914z" fill="#909090"/></svg>