<svg width="233" height="17" fill="none" xmlns="http://www.w3.org/2000/svg"><path d="M5.165 14.24c-1.467 0-2.634-.4-3.5-1.2-.867-.813-1.3-1.913-1.3-3.3h2.12c0 .853.246 1.54.74 2.06.506.507 1.153.76 1.94.76.813 0 1.46-.26 1.94-.78s.72-1.273.72-2.26c0-.88-.234-1.56-.7-2.04-.454-.48-1.067-.72-1.84-.72-.534 0-1.02.133-1.46.4-.44.253-.794.587-1.06 1l-1.92-.28.54-7.6h7.86V2.2h-6.1l-.28 3.82c.826-.627 1.8-.94 2.92-.94 1.226 0 2.226.38 3 1.14.773.747 1.16 1.847 1.16 3.3 0 1.493-.427 2.653-1.28 3.48-.84.827-2.007 1.24-3.5 1.24zm11.153 0c-1.054 0-1.927-.207-2.62-.62-.694-.427-1.227-1.16-1.6-2.2-.373-1.04-.56-2.467-.56-4.28 0-1.813.187-3.24.56-4.28.373-1.04.906-1.767 1.6-2.18.693-.427 1.566-.64 2.62-.64 1.053 0 1.926.213 2.62.64.693.427 1.227 1.16 1.6 2.2.373 1.027.56 2.447.56 4.26 0 1.813-.187 3.24-.56 4.28-.373 1.027-.907 1.753-1.6 2.18-.694.427-1.567.64-2.62.64zm0-1.7c.706 0 1.253-.187 1.64-.56.387-.387.653-.94.8-1.66.146-.72.22-1.66.22-2.82v-.58c0-1.2-.074-2.167-.22-2.9-.147-.747-.413-1.313-.8-1.7-.387-.387-.933-.58-1.64-.58-.707 0-1.254.193-1.64.58-.387.373-.654.92-.8 1.64-.147.72-.22 1.66-.22 2.82v.58c0 1.2.073 2.173.22 2.92.146.733.413 1.293.8 1.68.386.387.933.58 1.64.58zM25.85 5.7c-.52 0-1-.127-1.44-.38a2.875 2.875 0 01-1.02-1.02 2.84 2.84 0 01-.38-1.44c0-.507.127-.973.38-1.4A2.82 2.82 0 0124.41.42c.44-.253.92-.38 1.44-.38.507 0 .973.127 1.4.38.44.253.787.6 1.04 1.04.253.427.38.893.38 1.4 0 .52-.127 1-.38 1.44a2.82 2.82 0 01-1.04 1.02c-.427.253-.893.38-1.4.38zm0-1.24a1.5 1.5 0 001.1-.46c.307-.32.46-.7.46-1.14a1.5 1.5 0 00-.46-1.1 1.501 1.501 0 00-1.1-.46c-.44 0-.82.153-1.14.46a1.5 1.5 0 00-.46 1.1c0 .44.153.82.46 1.14.32.307.7.46 1.14.46zm15.214 9.78c-1.573 0-2.786-.367-3.64-1.1-.853-.747-1.28-1.753-1.28-3.02V9.9h2.08v.28c0 .76.234 1.347.7 1.76.467.4 1.14.6 2.02.6.854 0 1.527-.193 2.02-.58.494-.4.74-.993.74-1.78 0-1.533-.96-2.3-2.88-2.3h-1.32v-1.7h1.38c.72 0 1.32-.193 1.8-.58.494-.4.74-.96.74-1.68 0-.733-.226-1.28-.68-1.64-.453-.36-1.033-.54-1.74-.54-.76 0-1.366.193-1.82.58-.44.373-.66.927-.66 1.66v.24h-2.1V3.8c0-.747.194-1.4.58-1.96.387-.573.92-1.013 1.6-1.32.694-.32 1.48-.48 2.36-.48 1.4 0 2.514.327 3.34.98.827.653 1.24 1.58 1.24 2.78 0 .76-.2 1.387-.6 1.88-.386.48-.933.88-1.64 1.2v.08c.774.227 1.387.627 1.84 1.2.467.573.7 1.293.7 2.16 0 .8-.206 1.5-.62 2.1-.4.587-.96 1.04-1.68 1.36-.72.307-1.546.46-2.48.46zm11.054 0c-1.054 0-1.927-.207-2.62-.62-.694-.427-1.227-1.16-1.6-2.2-.374-1.04-.56-2.467-.56-4.28 0-1.813.186-3.24.56-4.28.373-1.04.906-1.767 1.6-2.18.693-.427 1.566-.64 2.62-.64 1.053 0 1.926.213 2.62.64.693.427 1.226 1.16 1.6 2.2.373 1.027.56 2.447.56 4.26 0 1.813-.187 3.24-.56 4.28-.374 1.027-.907 1.753-1.6 2.18-.694.427-1.567.64-2.62.64zm0-1.7c.706 0 1.253-.187 1.64-.56.386-.387.653-.94.8-1.66.146-.72.22-1.66.22-2.82v-.58c0-1.2-.074-2.167-.22-2.9-.147-.747-.414-1.313-.8-1.7-.387-.387-.934-.58-1.64-.58-.707 0-1.254.193-1.64.58-.387.373-.654.92-.8 1.64-.147.72-.22 1.66-.22 2.82v.58c0 1.2.073 2.173.22 2.92.146.733.413 1.293.8 1.68.386.387.933.58 1.64.58zM59.272.28h2.18l.02.06-1.08 3.42h-1.72l.6-3.48zM72.82 14.24c-1.467 0-2.634-.4-3.5-1.2-.867-.813-1.3-1.913-1.3-3.3h2.12c0 .853.246 1.54.74 2.06.506.507 1.153.76 1.94.76.813 0 1.46-.26 1.94-.78s.72-1.273.72-2.26c0-.88-.234-1.56-.7-2.04-.454-.48-1.067-.72-1.84-.72-.534 0-1.02.133-1.46.4-.44.253-.794.587-1.06 1l-1.92-.28.54-7.6h7.86V2.2h-6.1l-.28 3.82c.826-.627 1.8-.94 2.92-.94 1.226 0 2.226.38 3 1.14.773.747 1.16 1.847 1.16 3.3 0 1.493-.427 2.653-1.28 3.48-.84.827-2.007 1.24-3.5 1.24zm11.213 0c-1.573 0-2.787-.367-3.64-1.1-.853-.747-1.28-1.753-1.28-3.02V9.9h2.08v.28c0 .76.233 1.347.7 1.76.467.4 1.14.6 2.02.6.853 0 1.527-.193 2.02-.58.493-.4.74-.993.74-1.78 0-1.533-.96-2.3-2.88-2.3h-1.32v-1.7h1.38c.72 0 1.32-.193 1.8-.58.493-.4.74-.96.74-1.68 0-.733-.227-1.28-.68-1.64-.453-.36-1.033-.54-1.74-.54-.76 0-1.367.193-1.82.58-.44.373-.66.927-.66 1.66v.24h-2.1V3.8c0-.747.193-1.4.58-1.96.387-.573.92-1.013 1.6-1.32.693-.32 1.48-.48 2.36-.48 1.4 0 2.513.327 3.34.98s1.24 1.58 1.24 2.78c0 .76-.2 1.387-.6 1.88-.387.48-.933.88-1.64 1.2v.08c.773.227 1.387.627 1.84 1.2.467.573.7 1.293.7 2.16 0 .8-.207 1.5-.62 2.1-.4.587-.96 1.04-1.68 1.36-.72.307-1.547.46-2.48.46zM91.127.28h2.18l.02.06-1.08 3.42h-1.72l.6-3.48zm3.2 0h2.18l.02.06-1.08 3.42h-1.72l.6-3.48zm10.099 0h2.04l6.64 8.92c.146.2.34.487.58.86l.1-.04-.02-1V.28h2.1V14h-2l-6.66-9.02a5.683 5.683 0 01-.34-.48c-.12-.187-.207-.32-.26-.4l-.1.02.02 1.02V14h-2.1V.28zM119.919 14h-.9v-2.34h2.24v2.14l-1.08 3.02h-1.16l.9-2.82zm14.193.24c-1.573 0-2.786-.367-3.64-1.1-.853-.747-1.28-1.753-1.28-3.02V9.9h2.08v.28c0 .76.234 1.347.7 1.76.467.4 1.14.6 2.02.6.854 0 1.527-.193 2.02-.58.494-.4.74-.993.74-1.78 0-1.533-.96-2.3-2.88-2.3h-1.32v-1.7h1.38c.72 0 1.32-.193 1.8-.58.494-.4.74-.96.74-1.68 0-.733-.226-1.28-.68-1.64-.453-.36-1.033-.54-1.74-.54-.76 0-1.366.193-1.82.58-.44.373-.66.927-.66 1.66v.24h-2.1V3.8c0-.747.194-1.4.58-1.96.387-.573.92-1.013 1.6-1.32.694-.32 1.48-.48 2.36-.48 1.4 0 2.514.327 3.34.98.827.653 1.24 1.58 1.24 2.78 0 .76-.2 1.387-.6 1.88-.386.48-.933.88-1.64 1.2v.08c.774.227 1.387.627 1.84 1.2.467.573.7 1.293.7 2.16 0 .8-.206 1.5-.62 2.1-.4.587-.96 1.04-1.68 1.36-.72.307-1.546.46-2.48.46zm11.053 0c-1.053 0-1.926-.207-2.62-.62-.693-.427-1.226-1.16-1.6-2.2-.373-1.04-.56-2.467-.56-4.28 0-1.813.187-3.24.56-4.28.374-1.04.907-1.767 1.6-2.18.694-.427 1.567-.64 2.62-.64 1.054 0 1.927.213 2.62.64.694.427 1.227 1.16 1.6 2.2.374 1.027.56 2.447.56 4.26 0 1.813-.186 3.24-.56 4.28-.373 1.027-.906 1.753-1.6 2.18-.693.427-1.566.64-2.62.64zm0-1.7c.707 0 1.254-.187 1.64-.56.387-.387.654-.94.8-1.66.147-.72.22-1.66.22-2.82v-.58c0-1.2-.073-2.167-.22-2.9-.146-.747-.413-1.313-.8-1.7-.386-.387-.933-.58-1.64-.58-.706 0-1.253.193-1.64.58-.386.373-.653.92-.8 1.64-.146.72-.22 1.66-.22 2.82v.58c0 1.2.074 2.173.22 2.92.147.733.414 1.293.8 1.68.387.387.934.58 1.64.58zm9.534-6.84c-.52 0-1-.127-1.44-.38a2.87 2.87 0 01-1.02-1.02 2.83 2.83 0 01-.38-1.44c0-.507.126-.973.38-1.4a2.82 2.82 0 011.02-1.04c.44-.253.92-.38 1.44-.38.506 0 .973.127 1.4.38.44.253.786.6 1.04 1.04.253.427.38.893.38 1.4 0 .52-.127 1-.38 1.44-.254.427-.6.767-1.04 1.02-.427.253-.894.38-1.4.38zm0-1.24c.426 0 .793-.153 1.1-.46.306-.32.46-.7.46-1.14 0-.427-.154-.793-.46-1.1a1.503 1.503 0 00-1.1-.46c-.44 0-.82.153-1.14.46a1.5 1.5 0 00-.46 1.1c0 .44.153.82.46 1.14.32.307.7.46 1.14.46zm15.214 9.78c-1.573 0-2.787-.367-3.64-1.1-.853-.747-1.28-1.753-1.28-3.02V9.9h2.08v.28c0 .76.233 1.347.7 1.76.467.4 1.14.6 2.02.6.853 0 1.527-.193 2.02-.58.493-.4.74-.993.74-1.78 0-1.533-.96-2.3-2.88-2.3h-1.32v-1.7h1.38c.72 0 1.32-.193 1.8-.58.493-.4.74-.96.74-1.68 0-.733-.227-1.28-.68-1.64-.453-.36-1.033-.54-1.74-.54-.76 0-1.367.193-1.82.58-.44.373-.66.927-.66 1.66v.24h-2.1V3.8c0-.747.193-1.4.58-1.96.387-.573.92-1.013 1.6-1.32.693-.32 1.48-.48 2.36-.48 1.4 0 2.513.327 3.34.98s1.24 1.58 1.24 2.78c0 .76-.2 1.387-.6 1.88-.387.48-.933.88-1.64 1.2v.08c.773.227 1.387.627 1.84 1.2.467.573.7 1.293.7 2.16 0 .8-.207 1.5-.62 2.1-.4.587-.96 1.04-1.68 1.36-.72.307-1.547.46-2.48.46zm11.333 0c-1.666 0-2.926-.507-3.78-1.52-.853-1.027-1.28-2.753-1.28-5.18 0-1.84.187-3.307.56-4.4.387-1.107.94-1.9 1.66-2.38.734-.48 1.654-.72 2.76-.72 1.414 0 2.467.393 3.16 1.18.694.773 1.04 1.807 1.04 3.1h-2.1c0-.84-.186-1.48-.56-1.92-.36-.44-.906-.66-1.64-.66-1.053 0-1.773.4-2.16 1.2-.373.787-.573 1.993-.6 3.62.32-.373.767-.693 1.34-.96a4.453 4.453 0 011.9-.4c1.4 0 2.46.42 3.18 1.26.72.827 1.08 1.913 1.08 3.26 0 .907-.2 1.707-.6 2.4a4.009 4.009 0 01-1.62 1.58c-.693.36-1.473.54-2.34.54zm-.14-1.7c.854 0 1.494-.267 1.92-.8.44-.533.66-1.227.66-2.08 0-.84-.22-1.513-.66-2.02-.426-.52-1.066-.78-1.92-.78-.853 0-1.506.267-1.96.8-.44.52-.66 1.207-.66 2.06 0 .827.22 1.507.66 2.04.454.52 1.107.78 1.96.78zM188.12.28h2.18l.02.06-1.08 3.42h-1.72l.6-3.48zm13.548 13.96c-1.466 0-2.633-.4-3.5-1.2-.866-.813-1.3-1.913-1.3-3.3h2.12c0 .853.247 1.54.74 2.06.507.507 1.154.76 1.94.76.814 0 1.46-.26 1.94-.78s.72-1.273.72-2.26c0-.88-.233-1.56-.7-2.04-.453-.48-1.066-.72-1.84-.72a2.76 2.76 0 00-1.46.4c-.44.253-.793.587-1.06 1l-1.92-.28.54-7.6h7.86V2.2h-6.1l-.28 3.82c.827-.627 1.8-.94 2.92-.94 1.227 0 2.227.38 3 1.14.774.747 1.16 1.847 1.16 3.3 0 1.493-.426 2.653-1.28 3.48-.84.827-2.006 1.24-3.5 1.24zM208.862.28h2.18l.02.06-1.08 3.42h-1.72l.6-3.48zm3.2 0h2.18l.02.06-1.08 3.42h-1.72l.6-3.48zm10.098 0h10.64v1.9h-8.42v3.86h7.54v1.9h-7.54v4.16h8.54V14h-10.76V.28z" fill="#30167A"/></svg>