<svg width="1191" height="717" fill="none" xmlns="http://www.w3.org/2000/svg"><path fill-rule="evenodd" clip-rule="evenodd" d="M.548 139.76L.546 546.185c-.218 2.619.342 4.665 1.669 6.169.858.973 4.223 2.745 10.28 5.48 3.476 1.57 17.983 7.863 19.329 8.456.738.325 1.452.64 2.146.948 22.458 9.97 126.011 59.364 310.679 148.193l.005-166.031.504.004c105.365.904 193.067 1.356 263.106 1.356h581.806V141.684L.548 139.76z" fill="#C07A82" stroke="#A59A9A"/><path fill-rule="evenodd" clip-rule="evenodd" d="M345.648 289.977v425.335L844.97 395.297V1.124C737.748 62.732 655.989 109.82 599.693 142.387c-56.386 32.618-141.068 81.815-254.045 147.59zM845.971 1.005v390.768l344.099 158.705v-408.49L845.971 1.005zM.547 140.022L.5 552.298l344.152 163.138v-425.71L.547 140.022z" fill="#C07A82" stroke="#A59A9A"/><path fill-rule="evenodd" clip-rule="evenodd" d="M346.652 713.478L843.92 393.759l.05-390.929c-97.404 55.038-177 100.882-235.442 135.525l-15.671 9.313c-17.969 10.679-114.159 66.405-144.386 84.217L346.652 289.85v423.628z" fill="url(#paint0_linear)" stroke="url(#paint1_linear)" stroke-width="3"/><path d="M.048 139.26l288.6 125.389 56.504 24.329v426.839L0 553.122.048 139.26z" fill="url(#paint2_linear)"/><path fill-rule="evenodd" clip-rule="evenodd" d="M1.047 140.784L1 552.488 344.152 714.24V289.636l-55.902-24.07L1.047 140.784z" fill="#BDD3FF" fill-opacity=".5" stroke="url(#paint3_linear)" stroke-width="2"/><path fill-rule="evenodd" clip-rule="evenodd" d="M845.971 1l-.051 393.256 344.15 156.228V139.597L845.971 1z" fill="#E45902" fill-opacity=".899" stroke="url(#paint4_linear)"/><defs><linearGradient id="paint0_linear" x1="765.14" y1="82.839" x2="765.14" y2="520.008" gradientUnits="userSpaceOnUse"><stop stop-color="#B9D3FF" stop-opacity=".684"/><stop offset="1" stop-color="#CB7782"/></linearGradient><linearGradient id="paint1_linear" x1="510.005" y1="454.373" x2="775.956" y2="181.417" gradientUnits="userSpaceOnUse"><stop stop-color="#E8FF81"/><stop offset="1" stop-color="#E15D10"/></linearGradient><linearGradient id="paint2_linear" x1="234.423" y1="563.682" x2="1.073" y2="299.189" gradientUnits="userSpaceOnUse"><stop stop-color="#E05C0F"/><stop offset="1" stop-color="#C5FF06"/></linearGradient><linearGradient id="paint3_linear" x1="125.682" y1="238.582" x2="207.387" y2="276.796" gradientUnits="userSpaceOnUse"><stop stop-color="#E8FF81"/><stop offset="1" stop-color="#E36114"/></linearGradient><linearGradient id="paint4_linear" x1="1071.77" y1="317.696" x2="922.643" y2="180.005" gradientUnits="userSpaceOnUse"><stop stop-color="#151515"/><stop offset="1" stop-color="#E36114"/></linearGradient></defs></svg>