<svg width="948" height="1227" fill="none" xmlns="http://www.w3.org/2000/svg"><g filter="url(#filter0_d)"><path d="M93.928 60.624H5.736v-52H242.44v52h-88.192V294h-60.32V60.624zm185.257-52h151.424c31.893 0 55.882 7.904 71.968 23.712 16.085 15.53 24.128 37.44 24.128 65.728 0 39.936-16.64 66.56-49.92 79.872L535.025 294h-65.312l-50.336-106.496h-79.872V294h-60.32V8.624zm146.016 128.544c13.034 0 23.018-3.467 29.952-10.4 6.933-6.933 10.4-16.501 10.4-28.704s-3.467-21.632-10.4-28.288c-6.934-6.656-16.918-9.984-29.952-9.984h-85.696v77.376h85.696zm-175.14 466.824c-21.909 0-42.016-3.328-60.32-9.984-18.026-6.933-32.448-17.056-43.264-30.368-10.816-13.312-16.224-29.397-16.224-48.256l.416-9.152h61.152l-.416 6.656c0 12.203 5.408 21.909 16.224 29.12 10.816 7.211 25.931 10.816 45.344 10.816 20.523 0 35.36-2.635 44.512-7.904 9.152-5.547 13.728-12.896 13.728-22.048 0-8.043-3.05-14.699-9.152-19.968-5.824-5.547-13.312-9.845-22.464-12.896-8.874-3.328-21.216-7.211-37.024-11.648-22.464-6.379-40.629-12.48-54.496-18.304-13.866-5.824-25.792-14.421-35.776-25.792-9.984-11.648-14.976-26.901-14.976-45.76 0-26.069 10.539-45.899 31.616-59.488 21.078-13.589 49.088-20.384 84.032-20.384 33.003 0 59.904 7.072 80.704 21.216 21.078 13.867 31.616 34.805 31.616 62.816v4.992h-59.904v-3.744c0-10.539-4.853-18.859-14.56-24.96-9.429-6.101-22.325-9.152-38.688-9.152-17.472 0-30.922 2.357-40.352 7.072-9.152 4.715-13.728 11.232-13.728 19.552 0 6.379 2.774 11.925 8.32 16.64 5.547 4.437 12.48 8.181 20.8 11.232 8.32 2.773 20.107 6.24 35.36 10.4 22.742 6.101 41.323 12.203 55.744 18.304 14.699 5.824 27.318 14.56 37.856 26.208 10.539 11.648 15.808 26.901 15.808 45.76 0 30.507-10.954 52.971-32.864 67.392-21.632 14.421-51.306 21.632-89.024 21.632zm168.061-290.368h60.32v113.152H602.41V313.624h60.32V599h-60.32V478.776H478.442V599h-60.32V313.624zm81.806 595.368c-92.075 0-138.112-49.227-138.112-147.68 0-49.365 12.064-86.251 36.192-110.656 24.128-24.683 58.101-37.024 101.92-37.024 24.128 0 45.76 4.16 64.896 12.48 19.413 8.043 34.666 20.523 45.76 37.44 11.37 16.64 17.056 37.024 17.056 61.152h-61.984c0-18.581-5.963-33.141-17.888-43.68-11.926-10.816-27.456-16.224-46.592-16.224-26.07 0-45.483 7.765-58.24 23.296-12.758 15.531-19.136 37.856-19.136 66.976v12.48c0 60.181 25.792 90.272 77.376 90.272 20.245 0 36.33-5.269 48.256-15.808 12.202-10.539 18.304-25.099 18.304-43.68h59.904c0 24.405-5.547 44.928-16.64 61.568-11.094 16.363-26.208 28.704-45.344 37.024-19.136 8.043-41.046 12.064-65.728 12.064zm172.507-290.368h60.32v113.152h123.968V618.624h60.32V904h-60.32V783.776H732.755V904h-60.32V618.624zm-300.219 305h58.656l109.824 155.166c3.328 4.72 8.874 14.01 16.64 27.87l2.08-1.24-1.248-24.13V923.624h58.656V1209h-58.656l-110.24-156.42c-5.27-7.48-10.678-16.64-16.224-27.45l-2.08 1.25c.832 11.92 1.248 20.24 1.248 24.96V1209h-58.656V923.624z" fill="#CCFF3D"/><path d="M93.928 60.624h5v-5h-5v5zm-88.192 0h-5v5h5v-5zm0-52v-5h-5v5h5zm236.704 0h5v-5h-5v5zm0 52v5h5v-5h-5zm-88.192 0v-5h-5v5h5zm0 233.376v5h5v-5h-5zm-60.32 0h-5v5h5v-5zm0-238.376H5.736v10h88.192v-10zm-83.192 5v-52h-10v52h10zm-5-47H242.44v-10H5.736v10zm231.704-5v52h10v-52h-10zm5 47h-88.192v10h88.192v-10zm-93.192 5V294h10V60.624h-10zm5 228.376h-60.32v10h60.32v-10zm-55.32 5V60.624h-10V294h10zM279.185 8.624v-5h-5v5h5zm223.392 23.712l-3.505 3.566.016.016.016.015 3.473-3.597zm-25.792 145.6l-1.857-4.642-5.053 2.021 2.441 4.863 4.469-2.242zM535.025 294v5h8.103l-3.635-7.242-4.468 2.242zm-65.312 0l-4.521 2.137 1.353 2.863h3.168v-5zm-50.337-106.496l4.521-2.137-1.353-2.863h-3.168v5zm-79.871 0v-5h-5v5h5zm0 106.496v5h5v-5h-5zm-60.32 0h-5v5h5v-5zm175.967-167.232l-3.535-3.536 3.535 3.536zm0-56.992l-3.462 3.607 3.462-3.607zm-115.647-9.984v-5h-5v5h5zm0 77.376h-5v5h5v-5zm-60.32-123.544h151.424v-10H279.185v10zm151.424 0c31.129 0 53.641 7.712 68.463 22.278l7.009-7.132c-17.349-17.05-42.816-25.146-75.472-25.146v10zm68.495 22.309c14.866 14.353 22.601 34.819 22.601 62.131h10c0-29.264-8.351-52.617-25.656-69.325l-6.945 7.194zm22.601 62.131c0 19.283-4.016 34.942-11.72 47.27-7.68 12.287-19.258 21.64-35.057 27.96l3.713 9.284c17.481-6.992 30.863-17.607 39.824-31.944 8.935-14.296 13.24-31.917 13.24-52.57h-10zm-49.389 82.114l58.24 116.064 8.937-4.484-58.24-116.064-8.937 4.484zM535.025 289h-65.312v10h65.312v-10zm-60.792 2.863l-50.336-106.496-9.041 4.274 50.336 106.496 9.041-4.274zm-54.857-109.359h-79.871v10h79.871v-10zm-84.871 5V294h10V187.504h-10zm5 101.496h-60.32v10h60.32v-10zm-55.32 5V8.624h-10V294h10zm141.016-151.832c13.909 0 25.339-3.716 33.487-11.864l-7.071-7.072c-5.718 5.719-14.256 8.936-26.416 8.936v10zm33.487-11.864c8.089-8.089 11.865-19.054 11.865-32.24h-10c0 11.22-3.158 19.39-8.936 25.168l7.071 7.072zm11.865-32.24c0-13.176-3.774-24.057-11.938-31.895l-6.925 7.214c5.702 5.474 8.863 13.452 8.863 24.681h10zm-11.938-31.895c-8.155-7.83-19.558-11.377-33.414-11.377v10c12.213 0 20.778 3.108 26.489 8.59l6.925-7.213zm-33.414-11.377h-85.696v10h85.696v-10zm-90.696 5v77.376h10V59.792h-10zm5 82.376h85.696v-10h-85.696v10zm-149.764 451.84l-1.795 4.667.043.016.044.016 1.708-4.699zm-43.264-30.368l-3.88 3.153 3.88-3.153zm-16.224-48.256l-4.995-.227-.005.113v.114h5zm.416-9.152v-5h-4.778l-.217 4.773 4.995.227zm61.152 0l4.991.312.332-5.312h-5.323v5zm-.416 6.656l-4.99-.312-.01.156v.156h5zm16.224 29.12l2.774-4.16-2.774 4.16zm89.856 2.912l2.495 4.333.049-.028.048-.029-2.592-4.276zm4.576-42.016l-3.448 3.621.088.084.092.079 3.268-3.784zm-22.464-12.896l-1.755 4.682.086.032.088.029 1.581-4.743zm-37.024-11.648l-1.366 4.81.008.002.007.002 1.351-4.814zm-90.272-44.096l-3.796 3.254.019.023.02.022 3.757-3.299zm16.64-105.248l-2.709-4.202 2.709 4.202zm164.736.832l-2.811 4.135.031.021.032.021 2.748-4.177zm31.616 67.808v5h5v-5h-5zm-59.904 0h-5v5h5v-5zm-14.56-28.704l-2.716 4.198.028.018.027.017 2.661-4.233zm-79.04-2.08l-2.236-4.472-.027.013-.027.014 2.29 4.445zm-5.408 36.192l-3.238 3.81.057.048.058.046 3.123-3.904zm20.8 11.232l-1.721 4.694.07.026.07.023 1.581-4.743zm35.36 10.4l-1.315 4.824.01.003.01.002 1.295-4.829zM318.285 443l-1.948 4.605.053.022.053.021 1.842-4.648zm20.8 139.36l-2.749-4.176-.012.008-.012.008 2.773 4.16zm-89.024 16.632c-21.398 0-40.919-3.249-58.611-9.683l-3.417 9.398c18.915 6.878 39.608 10.285 62.028 10.285v-10zm-58.525-9.651c-17.316-6.66-30.98-16.302-41.178-28.854l-7.761 6.306c11.433 14.072 26.612 24.675 45.349 31.882l3.59-9.334zm-41.178-28.854c-10.019-12.331-15.105-27.271-15.105-45.103h-10c0 19.885 5.73 37.116 17.344 51.409l7.761-6.306zm-15.11-44.876l.416-9.152-9.99-.454-.416 9.152 9.99.454zm-4.579-4.379h61.152v-10h-61.152v10zm56.162-5.312l-.416 6.656 9.981.624.416-6.656-9.981-.624zm-.426 6.968c0 14 6.352 25.214 18.451 33.28l5.547-8.32c-9.533-6.356-13.998-14.555-13.998-24.96h-10zm18.451 33.28c11.949 7.967 28.175 11.656 48.117 11.656v-10c-18.884 0-32.888-3.521-42.57-9.976l-5.547 8.32zm48.117 11.656c20.715 0 36.667-2.618 47.007-8.571l-4.99-8.666c-7.964 4.585-21.686 7.237-42.017 7.237v10zm47.104-8.628c10.348-6.272 16.136-15.101 16.136-26.324h-10c0 7.081-3.364 12.951-11.319 17.772l5.183 8.552zm16.136-26.324c0-9.5-3.686-17.536-10.884-23.752l-6.536 7.568c5.005 4.322 7.42 9.598 7.42 16.184h10zm-10.703-23.589c-6.452-6.144-14.619-10.781-24.332-14.018l-3.162 9.486c8.592 2.864 15.401 6.825 20.597 11.774l6.897-7.242zm-24.157-13.957c-9.069-3.401-21.567-7.328-37.428-11.78l-2.703 9.628c15.755 4.422 27.94 8.261 36.62 11.516l3.511-9.364zm-37.414-11.776c-22.363-6.35-40.317-12.388-53.926-18.104l-3.872 9.22c14.125 5.932 32.502 12.097 55.066 18.504l2.732-9.62zm-53.926-18.104c-13.163-5.529-24.467-13.676-33.955-24.481l-7.514 6.598c10.481 11.936 23.028 20.984 37.597 27.103l3.872-9.22zm-33.915-24.436c-9.041-10.547-13.773-24.557-13.773-42.506h-10c0 19.768 5.252 36.265 16.18 49.014l7.593-6.508zm-13.773-42.506c0-24.451 9.743-42.66 29.326-55.286l-5.419-8.404c-22.572 14.553-33.907 36.003-33.907 63.69h10zm29.326-55.286c20.01-12.901 46.976-19.586 81.322-19.586v-10c-35.541 0-64.597 6.905-86.741 21.182l5.419 8.404zm81.322-19.586c32.309 0 58.145 6.922 77.893 20.351l5.623-8.27c-21.853-14.859-49.819-22.081-83.516-22.081v10zm77.956 20.393c19.498 12.828 29.364 32.092 29.364 58.639h10c0-29.474-11.211-52.088-33.868-66.993l-5.496 8.354zm29.364 58.639v4.992h10v-4.992h-10zm5-.008h-59.904v10h59.904v-10zm-54.904 5v-3.744h-10v3.744h10zm0-3.744c0-12.431-5.89-22.273-16.899-29.193l-5.322 8.466c8.405 5.283 12.221 12.081 12.221 20.727h10zm-16.843-29.158c-10.529-6.813-24.495-9.954-41.405-9.954v10c15.816 0 27.642 2.96 35.972 8.35l5.433-8.396zm-41.405-9.954c-17.799 0-32.151 2.382-42.588 7.6l4.472 8.944c8.422-4.211 20.972-6.544 38.116-6.544v-10zm-42.642 7.627c-10.344 5.329-16.438 13.327-16.438 23.997h10c0-5.97 3.059-11.007 11.018-15.107l-4.58-8.89zm-16.438 23.997c0 8.062 3.594 14.935 10.082 20.45l6.476-7.62c-4.605-3.914-6.558-8.135-6.558-12.83h-10zm10.197 20.544c6.058 4.847 13.495 8.83 22.202 12.022l3.443-9.388c-7.934-2.909-14.363-6.414-19.398-10.442l-6.247 7.808zm22.342 12.071c8.451 2.817 20.342 6.312 35.626 10.481l2.631-9.648c-15.223-4.151-26.905-7.59-35.095-10.319l-3.162 9.486zm35.646 10.486c22.617 6.068 40.959 12.101 55.091 18.08l3.896-9.21c-14.71-6.223-33.531-12.394-56.396-18.528l-2.591 9.658zm55.197 18.123c13.991 5.544 25.97 13.839 35.991 24.915l7.415-6.71c-11.057-12.22-24.315-21.397-39.722-27.501l-3.684 9.296zm35.991 24.915c9.546 10.551 14.515 24.524 14.515 42.405h10c0-19.836-5.569-36.37-17.1-49.115l-7.415 6.71zm14.515 42.405c0 29.144-10.356 49.882-30.613 63.216l5.498 8.352c23.562-15.508 35.115-39.698 35.115-71.568h-10zM336.312 578.2c-20.518 13.678-49.098 20.792-86.251 20.792v10c38.282 0 69.052-7.308 91.798-22.472l-5.547-8.32zm81.81-264.576v-5h-5v5h5zm60.32 0h5v-5h-5v5zm0 113.152h-5v5h5v-5zm123.968 0v5h5v-5h-5zm0-113.152v-5h-5v5h5zm60.32 0h5v-5h-5v5zm0 285.376v5h5v-5h-5zm-60.32 0h-5v5h5v-5zm0-120.224h5v-5h-5v5zm-123.968 0v-5h-5v5h5zm0 120.224v5h5v-5h-5zm-60.32 0h-5v5h5v-5zm0-280.376h60.32v-10h-60.32v10zm55.32-5v113.152h10V313.624h-10zm5 118.152H602.41v-10H478.442v10zm128.968-5V313.624h-10v113.152h10zm-5-108.152h60.32v-10h-60.32v10zm55.32-5V599h10V313.624h-10zm5 280.376h-60.32v10h60.32v-10zm-55.32 5V478.776h-10V599h10zm-5-125.224H478.442v10H602.41v-10zm-128.968 5V599h10V478.776h-10zm5 115.224h-60.32v10h60.32v-10zm-55.32 5V313.624h-10V599h10zm-25.114 51.656l3.555 3.515.01-.01.01-.01-3.575-3.495zm166.816-24.544l-1.994 4.585.04.018.04.016 1.914-4.619zm45.76 37.44l-4.181 2.742.026.04.027.039 4.128-2.821zm17.056 61.152v5h5v-5h-5zm-61.984 0h-5v5h5v-5zm-17.888-43.68l-3.359 3.704.024.021.024.022 3.311-3.747zm-104.832 7.072l-3.864-3.174 3.864 3.174zm106.496 153.92l-3.268-3.784-.022.018-.021.019 3.311 3.747zm18.304-43.68v-5h-5v5h5zm59.904 0h5v-5h-5v5zM611 859.904l4.138 2.806.011-.016.011-.017-4.16-2.773zm-45.344 37.024l1.937 4.609.028-.011.028-.013-1.993-4.585zm-65.728 7.064c-45.178 0-78.166-12.061-99.932-35.335-21.826-23.338-33.18-58.809-33.18-107.345h-10c0 49.917 11.664 88.286 35.876 114.175 24.271 25.953 60.339 38.505 107.236 38.505v-10zm-133.112-142.68c0-48.628 11.885-84.015 34.747-107.141l-7.111-7.03c-25.393 25.685-37.636 64.068-37.636 114.171h10zm34.767-107.161c22.95-23.477 55.489-35.519 98.345-35.519v-10c-44.782 0-80.19 12.641-105.496 38.529l7.151 6.99zm98.345-35.519c23.548 0 44.486 4.058 62.902 12.065l3.987-9.17c-19.855-8.633-42.182-12.895-66.889-12.895v10zm62.982 12.099c18.524 7.675 32.972 19.518 43.493 35.563l8.362-5.484c-11.666-17.79-27.725-30.906-48.028-39.317l-3.827 9.238zm43.546 35.642c10.698 15.656 16.184 35.007 16.184 58.331h10c0-24.933-5.885-46.349-17.928-63.973l-8.256 5.642zm21.184 53.331h-61.984v10h61.984v-10zm-56.984 5c0-19.75-6.394-35.777-19.577-47.427l-6.622 7.494c10.668 9.427 16.199 22.52 16.199 39.933h10zm-19.529-47.384c-13.014-11.803-29.821-17.52-49.951-17.52v10c18.142 0 32.396 5.099 43.233 14.928l6.718-7.408zm-49.951-17.52c-27.087 0-48.13 8.11-62.104 25.122l7.727 6.348c11.541-14.05 29.325-21.47 54.377-21.47v-10zm-62.104 25.122c-13.759 16.751-20.272 40.379-20.272 70.15h10c0-28.469 6.244-49.492 17.999-63.802l-7.727-6.348zm-20.272 70.15v12.48h10v-12.48h-10zm0 12.48c0 30.689 6.56 54.639 20.547 70.958 14.115 16.467 35.047 24.314 61.829 24.314v-10c-24.803 0-42.558-7.198-54.236-20.822-11.804-13.771-18.14-34.958-18.14-64.45h-10zm82.376 95.272c21.123 0 38.5-5.514 51.567-17.061l-6.622-7.494c-10.784 9.53-25.577 14.555-44.945 14.555v10zM552.7 845.8c13.476-11.638 20.036-27.675 20.036-47.464h-10c0 17.374-5.643 30.457-16.572 39.896l6.536 7.568zm15.036-42.464h59.904v-10h-59.904v10zm54.904-5c0 23.638-5.365 43.141-15.8 58.794l8.32 5.547c11.751-17.626 17.48-39.168 17.48-64.341h-10zm-15.779 58.762c-10.531 15.534-24.881 27.281-43.199 35.245l3.987 9.17c19.955-8.676 35.834-21.612 47.489-38.803l-8.277-5.612zm-43.143 35.221c-18.418 7.741-39.649 11.673-63.79 11.673v10c25.224 0 47.811-4.11 67.665-12.455l-3.875-9.218zm108.717-273.695v-5h-5v5h5zm60.32 0h5v-5h-5v5zm0 113.152h-5v5h5v-5zm123.968 0v5h5v-5h-5zm0-113.152v-5h-5v5h5zm60.32 0h5v-5h-5v5zm0 285.376v5h5v-5h-5zm-60.32 0h-5v5h5v-5zm0-120.224h5v-5h-5v5zm-123.968 0v-5h-5v5h5zm0 120.224v5h5v-5h-5zm-60.32 0h-5v5h5v-5zm0-280.376h60.32v-10h-60.32v10zm55.32-5v113.152h10V618.624h-10zm5 118.152h123.968v-10H732.755v10zm128.968-5V618.624h-10v113.152h10zm-5-108.152h60.32v-10h-60.32v10zm55.32-5V904h10V618.624h-10zm5 280.376h-60.32v10h60.32v-10zm-55.32 5V783.776h-10V904h10zm-5-125.224H732.755v10h123.968v-10zm-128.968 5V904h10V783.776h-10zm5 115.224h-60.32v10h60.32v-10zm-55.32 5V618.624h-10V904h10zm-305.219 19.624v-5h-5v5h5zm58.656 0l4.081-2.889-1.494-2.111h-2.587v5zm109.824 155.166l4.085-2.88-.004-.01-4.081 2.89zm16.64 27.87l-4.363 2.45 2.517 4.49 4.418-2.65-2.572-4.29zm2.08-1.24l2.572 4.28 2.576-1.54-.155-3-4.993.26zm-1.248-24.13h-5v.13l.006.13 4.994-.26zm0-157.666v-5h-5v5h5zm58.656 0h5v-5h-5v5zm0 285.376v5h5v-5h-5zm-58.656 0l-4.087 2.88 1.494 2.12h2.593v-5zm-110.24-156.42l-4.089 2.88h.002l4.087-2.88zm-16.224-27.45l4.449-2.28-2.439-4.76-4.583 2.75 2.573 4.29zm-2.08 1.25l-2.573-4.29-2.628 1.58.213 3.05 4.988-.34zm1.248 182.62v5h5v-5h-5zm-58.656 0h-5v5h5v-5zm0-280.376h58.656v-10h-58.656v10zm54.575-2.111l109.824 155.167 8.162-5.78-109.824-155.165-8.162 5.778zm109.82 155.167c3.156 4.47 8.584 13.54 16.362 27.43l8.725-4.89c-7.752-13.84-13.417-23.35-16.917-28.31l-8.17 5.77zm23.297 29.27l2.08-1.25-5.145-8.57-2.08 1.25 5.145 8.57zm4.501-5.79l-1.248-24.13-9.987.52 1.248 24.12 9.987-.51zm-1.241-23.87V923.624h-10v157.666h10zm-5-152.666h58.656v-10h-58.656v10zm53.656-5V1209h10V923.624h-10zm5 280.376h-58.656v10h58.656v-10zm-54.569 2.12l-110.24-156.42-8.174 5.76 110.24 156.42 8.174-5.76zm-110.238-156.41c-5.101-7.25-10.391-16.19-15.864-26.86l-8.898 4.56c5.62 10.96 11.146 20.32 16.584 28.05l8.178-5.75zm-22.886-28.87l-2.08 1.25 5.145 8.57 2.08-1.24-5.145-8.58zm-4.495 5.88c.832 11.94 1.236 20.1 1.236 24.62h10c0-4.91-.429-13.39-1.26-25.31l-9.976.69zm1.236 24.62V1209h10v-157.66h-10zm5 152.66h-58.656v10h58.656v-10zm-53.656 5V923.624h-10V1209h10z" fill="#000"/></g><defs><filter id="filter0_d" x=".736" y=".624" width="946.307" height="1226.38" filterUnits="userSpaceOnUse" color-interpolation-filters="sRGB"><feFlood flood-opacity="0" result="BackgroundImageFix"/><feColorMatrix in="SourceAlpha" values="0 0 0 0 0 0 0 0 0 0 0 0 0 0 0 0 0 0 127 0"/><feOffset dx="17" dy="5"/><feGaussianBlur stdDeviation="4"/><feColorMatrix values="0 0 0 0 0.996078 0 0 0 0 0.388235 0 0 0 0 0.00392157 0 0 0 1 0"/><feBlend in2="BackgroundImageFix" result="effect1_dropShadow"/><feBlend in="SourceGraphic" in2="effect1_dropShadow" result="shape"/></filter></defs></svg>