<svg width="199" height="100" fill="none" xmlns="http://www.w3.org/2000/svg"><g filter="url(#filter0_d)" stroke="#fff" stroke-width="2"><path clip-rule="evenodd" d="M166.009 65L140 93h52l-25.991-28z"/><path d="M166.171 64.609L167 4m-1.549 0L140 92.43M168 4l24 88.5" stroke-linecap="square"/><path clip-rule="evenodd" d="M139.331 33.44l26.485-29.613-52.343.007 25.858 29.607z"/><path d="M139.116 33.543L139.5 90m-.5 2L114 4" stroke-linecap="square"/><path clip-rule="evenodd" d="M113 65L87 93h52l-26-28z"/><path d="M112.968 64.609L113 5m-1-1L87 92" stroke-linecap="square"/><path clip-rule="evenodd" d="M86.13 33.44l26.485-29.613-52.343.007L86.13 33.441z"/><path d="M85.912 33.638l.011 59.253M85 92L59.913 4.327" stroke-linecap="square"/><path clip-rule="evenodd" d="M60 65L34 93h52L60 65z"/><path d="M59.766 64.609V4.07M59 4L34 91" stroke-linecap="square"/><path clip-rule="evenodd" d="M32.927 33.44L59.413 3.828 7.07 3.834l25.857 29.607z"/><path d="M32.708 33.638l.01 59.313M32.5 92.5L7 4.5" stroke-linecap="square"/></g><defs><filter id="filter0_d" x=".867" y=".762" width="197.425" height="99.238" filterUnits="userSpaceOnUse" color-interpolation-filters="sRGB"><feFlood flood-opacity="0" result="BackgroundImageFix"/><feColorMatrix in="SourceAlpha" values="0 0 0 0 0 0 0 0 0 0 0 0 0 0 0 0 0 0 127 0"/><feOffset dy="2"/><feGaussianBlur stdDeviation="2"/><feColorMatrix values="0 0 0 0 0 0 0 0 0 0 0 0 0 0 0 0 0 0 0.5 0"/><feBlend in2="BackgroundImageFix" result="effect1_dropShadow"/><feBlend in="SourceGraphic" in2="effect1_dropShadow" result="shape"/></filter></defs></svg>